<svg width="48" height="48" viewBox="0 0 48 48" fill="none" xmlns="http://www.w3.org/2000/svg">
<path d="M30.8909 8.39484H8.57674C6.48294 8.39484 4.78235 10.0954 4.78235 12.1892V44.2056C4.78235 46.2994 6.48294 48 8.57674 48H30.8909C32.9847 48 34.6853 46.2994 34.6853 44.2056V12.1892C34.6755 10.0954 32.9749 8.39484 30.8909 8.39484ZM32.0213 44.1958C32.0213 44.8249 31.5102 45.3361 30.8811 45.3361H8.56691C7.93779 45.3361 7.42663 44.8249 7.42663 44.1958V12.1892C7.42663 11.5601 7.93779 11.0489 8.56691 11.0489H30.8811C31.5102 11.0489 32.0213 11.5601 32.0213 12.1892V44.1958Z" fill="#454543"/>
<path d="M39.4234 0H17.1092C15.0154 0 13.3148 1.70059 13.3148 3.79439C13.3148 4.53164 13.9046 5.12144 14.6419 5.12144C15.3791 5.12144 15.9689 4.53164 15.9689 3.79439C15.9689 3.16527 16.4801 2.65411 17.1092 2.65411H39.4234C40.0525 2.65411 40.5636 3.16527 40.5636 3.79439V35.8108C40.5636 36.4399 40.0525 36.9511 39.4234 36.9511C38.6861 36.9511 38.0963 37.5409 38.0963 38.2781C38.0963 39.0154 38.6861 39.6052 39.4234 39.6052C41.5172 39.6052 43.2177 37.9046 43.2177 35.8108V3.79439C43.2177 1.70059 41.5172 0 39.4234 0Z" fill="#454543"/>
</svg>
