<svg width="79" height="87" viewBox="0 0 79 87" fill="none" xmlns="http://www.w3.org/2000/svg">
	<g clip-path="url(#clip0)">
	<path d="M22.2 31.4V34.5H20.1V25.4H23.3C25.6 25.4 26.7 26.4 26.7 28.3C26.7 29.2 26.4 30 25.7 30.5C25 31.1 24.2 31.3 23.1 31.3H22.2V31.4ZM22.2 27V29.8H23C24.1 29.8 24.6 29.3 24.6 28.4C24.6 27.5 24.1 27 23 27H22.2ZM38.5 34.5H36.5V29.1C36.5 28.5001 36.5 27.9001 36.6 27.2001H36.5C36.4 27.8001 36.3 28.2 36.2 28.4L34.1 34.6H32.4L30.2 28.5C30.1 28.3 30 27.9001 29.9 27.2001H29.8C30 28.0001 30 28.8 30 29.5V34.5H28.2V25.4H31.2L33.1 30.8C33.2 31.2 33.4 31.7 33.4 32.1C33.5 31.6 33.6 31.2 33.8 30.8L35.7 25.4H38.6V34.5H38.5ZM42.6 31.4V34.5H40.5V25.4H43.7C46 25.4 47.1 26.4 47.1 28.3C47.1 29.2 46.8 30 46.1 30.5C45.4 31.1 44.6 31.3 43.5 31.3H42.6V31.4ZM42.6 27V29.8H43.4C44.5 29.8 45 29.3 45 28.4C45 27.5 44.5 27 43.4 27H42.6ZM53.2 32.9001C52.1 32.9001 51.1 32.5 50.4 31.8C49.7 31.1 49.3 30.2 49.3 29.1C49.3 28.0001 49.7 27.1 50.4 26.4C51.1 25.7 52.1 25.3 53.2 25.3C54.3 25.3 55.2 25.7 56 26.4C56.7 27.1 57.1 28.0001 57.1 29.1C57.1 30.2 56.7 31.1 56 31.8C55.2 32.5 54.3 32.9001 53.2 32.9001ZM53.2 26C52.3 26 51.5 26.3 51 26.9C50.4 27.5 50.1 28.2 50.1 29.1C50.1 30.0001 50.4 30.7 51 31.3C51.6 31.9 52.3 32.2001 53.2 32.2001C54.1 32.2001 54.8 31.9 55.4 31.3C56 30.7 56.3 30.0001 56.3 29.1C56.3 28.2 56 27.5 55.4 26.9C54.8 26.3 54.1 26 53.2 26ZM55.2 31.3H53.9L53.5 30.1C53.4 29.7 53.2 29.5 52.9 29.5H52.6V31.3H51.5V26.6H53.1C54.4 26.6 55 27 55 27.9C55 28.5 54.6 29.0001 53.9 29.1C54.2 29.2 54.4 29.4 54.6 29.8L55.2 31.3ZM52.6 27.6V28.7001H53.1C53.6 28.7001 53.8 28.5001 53.8 28.1C53.8 27.7 53.5 27.6 53 27.6H52.6Z" fill="#CF1619"/>
	<path d="M72.1 87C72.6 87 73.1 86.6 73.1 86V12.7C73.1 12.2 72.7 11.7 72.1 11.7H67.2V6.8C67.2 6.3 66.8 5.8 66.2 5.8H22.7V4.6C22.7 2.1 20.6 0 18 0C15.4 0 13.3 2.1 13.3 4.6V5.8H9.9C9.4 5.8 8.9 6.2 8.9 6.8V70.4H1C0.5 70.4 0 70.8 0 71.4V75.8C0 78.8 2.4 81.2 5.4 81.2H14.8V86C14.8 86.5 15.2 87 15.8 87H72.1ZM67.1 75.8V13.7H71.1V85.1H16.8V81.2H61.7C64.7 81.1 67.1 78.7 67.1 75.8ZM15.3 4.6C15.3 3.1 16.5 1.9 18 1.9C19.5 1.9 20.7 3.1 20.7 4.6V5.8H15.3V4.6ZM10.9 7.8H20.8V12.7C20.8 13.8 19.9 14.7 18.8 14.7C17.7 14.7 16.8 13.8 16.8 12.7V11.7H14.8V12.7C14.8 14.9 16.6 16.6 18.7 16.6C20.8 16.6 22.6 14.9 22.6 12.7V7.8H65.1V75.8C65.1 77.7 63.5 79.2 61.6 79.2C59.7 79.2 58.1 77.7 58.1 75.8V71.4C58.1 70.9 57.7 70.4 57.1 70.4H10.9V7.8ZM5.4 79.2C3.5 79.2 1.9 77.7 1.9 75.8V72.4H56.2V75.8C56.2 76.7 56.5 77.7 56.9 78.5L57.3 79.3H5.4V79.2Z" fill="#CF1619"/>
	<path d="M24.2 51.3H22.2V53.2001H24.2V51.3Z" fill="#CF1619"/>
	<path d="M59.7 51.3H28.1V53.2001H59.7V51.3Z" fill="#CF1619"/>
	<path d="M24.2 45H22.2V46.9H24.2V45Z" fill="#CF1619"/>
	<path d="M59.7 45H28.1V46.9H59.7V45Z" fill="#CF1619"/>
	<path d="M59.7 57.2H16.3V59.0999H59.7V57.2Z" fill="#CF1619"/>
	<path d="M53.8 63.1001H16.3V65.0001H53.8V63.1001Z" fill="#CF1619"/>
	<path d="M79 63.1001H77V81.2001H79V63.1001Z" fill="#CF1619"/>
	<path d="M79 85.1001H77V87.0001H79V85.1001Z" fill="#CF1619"/>
	<path d="M5 20.5H3V38.6H5V20.5Z" fill="#CF1619"/>
	<path d="M5 14.7H3V16.6H5V14.7Z" fill="#CF1619"/>
	</g>
	<defs>
	<clipPath id="clip0">
	<rect width="79" height="87" fill="white"/>
	</clipPath>
	</defs>
</svg>