<svg width="86" height="91" viewBox="0 0 86 91" fill="none" xmlns="http://www.w3.org/2000/svg">
	<g clip-path="url(#clip0)">
	<path d="M52.1 38.2001V89.8001V38.2001ZM17.9 52.6001L17.7 38.9001L17 38.7001L13.7 45.1001L17.9 52.6001ZM18.1 89.8001L17.8 72.9001L18 56.8001C16.5 57.8001 15 56.8001 14.8 56.3001L9.29999 47.9001C8.09999 46.4001 7.99999 43.9001 9.49999 42.2001L14.8 32.8001C16.8 29.3001 31.6 29.8001 35.3 30.6001L43 34.8001L53.3 32.1001C54.8 32.1001 54.5 37.3001 53.3 37.3001L43.5 40.7001C43 40.7001 42.5 40.5001 41.8 40.4001L35.1 37.9001L34.9 38.0001C34.7 43.2001 35.1 51.7001 34.9 56.9001V72.3001L34.6 89.2001L18.1 89.8001ZM32.4 16.8001C32.6 18.3001 32.2 22.2001 31.4 23.5001C30.7 24.7001 29.1 26.0001 27.4 26.3001C26.7 26.5001 26.2 26.5001 25.4 26.3001C23.6 26.0001 22.1 24.6001 21.4 23.5001C20.6 22.2001 20.2 18.5001 20.4 16.8001C20.7 13.8001 23.6 12.3001 26.4 12.3001C29.2 12.2001 32.1 13.7001 32.4 16.8001ZM30.1 89.8001L26.9 60.1001H26.1L22.9 89.8001H30.1ZM52.1 3.20006C56.3 4.40006 60.1 3.20006 63.8 2.20006C70 0.500055 76.1 1.40006 80.8 2.90006V22.0001C76.8 19.0001 71.1 19.0001 66.3 21.5001C61.3 24.0001 56.8 23.7001 52.1 21.5001V3.20006V3.20006ZM52.1 21.1001V32.7001V21.1001Z" stroke="#CF1619" stroke-width="2" stroke-miterlimit="22.9256"/>
	<path d="M85.1 89.3H0" stroke="#CF1619" stroke-width="2" stroke-miterlimit="22.9256"/>
	</g>
	<defs>
	<clipPath id="clip0">
	<rect width="85.1" height="90.9" fill="white"/>
	</clipPath>
	</defs>
</svg>