<svg width="103" height="70" viewBox="0 0 103 70" fill="none" xmlns="http://www.w3.org/2000/svg">
	<g clip-path="url(#clip0)">
	<path d="M78.0377 38.199H24.9732" stroke="#CF1619" stroke-width="2" stroke-miterlimit="22.9256" stroke-linecap="round"/>
	<path d="M101.371 33.4946L99.3012 50.0538C98.7366 54.3817 96.4786 56.6398 92.527 56.6398H79.5431" stroke="#CF1619" stroke-width="2" stroke-miterlimit="22.9256" stroke-linecap="round"/>
	<path fill-rule="evenodd" clip-rule="evenodd" d="M76.1557 6.58592C76.3439 3.387 79.1664 1.69345 82.1772 1.69345C85.188 1.50528 88.0105 3.01065 88.3869 6.0214C88.7632 7.52678 88.3869 11.2902 87.6342 12.7956C86.8815 14.1128 85.3761 15.43 83.4944 15.9945C82.5535 16.1827 82.3654 16.1827 81.4245 16.1827C79.5428 15.8064 77.8492 14.6773 77.2847 13.5483C76.532 12.0429 76.1557 8.0913 76.1557 6.58592Z" stroke="#CF1619" stroke-width="2" stroke-miterlimit="22.9256" stroke-linecap="round"/>
	<path d="M76.7203 69.8119L77.2848 53.8173C77.2848 53.2528 77.6611 52.8764 78.4138 52.6883H89.3278C94.5966 52.6883 95.7256 48.7366 95.5375 44.785C95.3493 39.5162 95.1611 31.0485 93.0912 25.4033C90.4568 17.8764 83.1181 18.6291 79.3547 21.4517C76.9084 23.3334 74.6504 28.0377 72.7687 30.484C72.5805 30.6721 72.3923 30.6721 72.2041 30.8603L60.1611 32.5539C57.1504 33.3065 58.6558 37.8227 61.102 38.0108H72.9568C73.8977 37.8227 74.4622 37.6345 75.2149 37.2582L83.3063 30.6721" stroke="#CF1619" stroke-width="2" stroke-miterlimit="22.9256" stroke-linecap="round"/>
	<path d="M81.0485 32.9302L83.3065 42.3388L82.5538 43.4678L73.1452 45.5377C70.3226 46.1022 69.1936 49.6775 69.3818 51.5592L70.5108 69.6237" stroke="#CF1619" stroke-width="2" stroke-miterlimit="22.9256" stroke-linecap="round"/>
	<path d="M1.45169 33.4946L3.52158 50.0538C4.0861 54.3817 6.34416 56.6398 10.2958 56.6398H23.2796" stroke="#CF1619" stroke-width="2" stroke-miterlimit="22.9256" stroke-linecap="round"/>
	<path fill-rule="evenodd" clip-rule="evenodd" d="M26.4785 6.58603C26.2904 3.3871 23.4678 1.69355 20.457 1.69355C17.4463 1.31721 14.6237 2.82258 14.2474 5.83334C14.0592 7.52689 14.2474 11.2903 15.1882 12.7957C15.9409 14.1129 17.4463 15.4301 19.328 15.9946C20.2689 16.1828 20.457 16.1828 21.3979 16.1828C23.2796 15.8065 24.9732 14.6774 25.5377 13.5484C26.2904 12.043 26.6667 8.0914 26.4785 6.58603Z" stroke="#CF1619" stroke-width="2" stroke-miterlimit="22.9256" stroke-linecap="round"/>
	<path d="M26.1018 69.8119L25.5373 53.8173C25.5373 53.2528 25.1609 52.8764 24.4082 52.6883H13.4943C8.22545 52.6883 7.09641 48.7366 7.28459 44.785C7.47276 39.7044 7.66093 31.0485 9.54265 25.4033C12.1771 17.8764 19.5158 18.6291 23.2792 21.4517C25.7254 23.3334 27.9835 28.0377 29.8652 30.484C30.0534 30.6721 30.2416 30.6721 30.4297 30.8603L42.4728 32.5539C45.4835 33.3065 43.9781 37.8227 41.5319 38.0108H29.6771C28.7362 37.8227 28.1717 37.6345 27.419 37.2582L19.3276 30.6721" stroke="#CF1619" stroke-width="2" stroke-miterlimit="22.9256" stroke-linecap="round"/>
	<path d="M21.5861 32.9302L19.328 42.3388L20.0807 43.4678L29.4893 45.5377C32.3119 46.1022 33.4409 49.6775 33.2528 51.5592L32.1237 69.8119" stroke="#CF1619" stroke-width="2" stroke-miterlimit="22.9256" stroke-linecap="round"/>
	<path fill-rule="evenodd" clip-rule="evenodd" d="M57.1503 5.6451C56.9621 2.82252 54.3277 1.31714 51.5051 1.31714C48.6825 1.31714 46.0481 2.82252 45.86 5.6451C45.6718 7.15047 46.0481 10.7257 46.8008 12.0429C47.3653 13.172 48.8707 14.301 50.5643 14.6774C51.317 14.8655 51.5051 14.8655 52.446 14.6774C54.1395 14.301 55.6449 13.172 56.2094 12.0429C56.9621 10.7257 57.3385 7.15047 57.1503 5.6451Z" stroke="#CF1619" stroke-width="2" stroke-miterlimit="22.9256" stroke-linecap="round"/>
	<path d="M38.1453 28.7904L39.0861 23.5215C39.0861 16.9355 63.9248 16.9355 64.113 23.5215L64.6775 28.7904" stroke="#CF1619" stroke-width="2" stroke-miterlimit="22.9256" stroke-linecap="round"/>
	</g>
	<defs>
	<clipPath id="clip0">
	<rect width="102.554" height="70" fill="white" transform="translate(0.134277)"/>
	</clipPath>
	</defs>
</svg>