<svg width="63" height="72" viewBox="0 0 63 72" fill="none" xmlns="http://www.w3.org/2000/svg">
	<path d="M17.8203 8.7131L16.8223 8.77548L16.8242 8.80639L16.828 8.83713L17.8203 8.7131ZM17.0927 13.9522L17.9609 14.4483L17.9747 14.4242L17.9871 14.3994L17.0927 13.9522ZM13.891 16.1351L13.6949 15.1546L13.6716 15.1592L13.6485 15.165L13.891 16.1351ZM12.4357 16.1351L12.6782 15.165L12.6552 15.1592L12.6318 15.1546L12.4357 16.1351ZM9.23405 13.9522L10.1285 13.505L9.23405 13.9522ZM7.19663 68.0894L6.19775 68.1367L8.19642 68.0691L7.19663 68.0894ZM6.03239 43.4948L5.03251 43.4791L5.03201 43.5106L5.0335 43.5421L6.03239 43.4948ZM6.32345 25.0125L7.32324 24.9922L5.32357 24.9967L6.32345 25.0125ZM16.6757 68.0469C16.6522 68.5987 17.0805 69.065 17.6323 69.0885C18.1841 69.112 18.6504 68.6837 18.6739 68.1319L16.6757 68.0469ZM19.5471 47.6122C19.5706 47.0604 19.1423 46.594 18.5905 46.5706C18.0387 46.5471 17.5724 46.9753 17.5489 47.5271L19.5471 47.6122ZM1.8338 46.6293C1.87711 47.1799 2.35855 47.5912 2.90913 47.5479C3.45972 47.5046 3.87095 47.0231 3.82764 46.4725L1.8338 46.6293ZM1.81201 33.5988L0.814227 33.5322L0.809394 33.6047L0.81509 33.6772L1.81201 33.5988ZM2.39413 24.8669L1.42205 24.6323L1.40202 24.7153L1.39635 24.8004L2.39413 24.8669ZM17.5293 20.4823C18.0816 20.4823 18.5293 20.0346 18.5293 19.4823C18.5293 18.93 18.0816 18.4823 17.5293 18.4823V20.4823ZM26.1155 4.92931L25.1217 4.81888L25.1155 4.87393V4.92931H26.1155ZM36.5937 4.92931L35.5953 4.98478L35.5965 5.00684L35.5987 5.02882L36.5937 4.92931ZM35.7205 10.8961L36.5888 11.3922L36.5947 11.3817L35.7205 10.8961ZM32.2278 13.3701L32.0317 12.3895L32.0084 12.3941L31.9853 12.3999L32.2278 13.3701ZM30.4814 13.3701L30.6776 12.3895L30.669 12.3878L30.6603 12.3862L30.4814 13.3701ZM26.9887 10.8961L26.0749 11.3022L26.0954 11.3483L26.1205 11.3922L26.9887 10.8961ZM39.2133 71L38.2133 71.0132L40.2132 70.9878L39.2133 71ZM38.9222 49.025L37.9223 49.0362L37.9223 49.0382L38.9222 49.025ZM38.6311 23.1206L39.6311 23.1084L37.6312 23.1318L38.6311 23.1206ZM27.1582 70.8977C27.1017 71.4471 27.5013 71.9382 28.0506 71.9948C28.6 72.0513 29.0912 71.6517 29.1477 71.1023L27.1582 70.8977ZM33.7071 71.1023C33.7636 71.6517 34.2548 72.0513 34.8041 71.9948C35.3535 71.9382 35.7531 71.4471 35.6966 70.8977L33.7071 71.1023ZM24.3692 23.1206L25.3691 23.1358L23.3693 23.1037L24.3692 23.1206ZM23.9326 49.025L22.9327 49.0081L22.9327 49.0117L23.9326 49.025ZM23.6415 71L22.6416 70.9868L24.6414 71.0152L23.6415 71ZM41.2992 45.2897C40.7634 45.4237 40.4376 45.9666 40.5716 46.5024C40.7055 47.0382 41.2485 47.364 41.7843 47.23L41.2992 45.2897ZM42.4149 45.0956L41.4171 45.0291L41.4149 45.0623V45.0956H42.4149ZM43.2881 31.9979L44.2859 32.0644L44.2913 31.9837L44.2836 31.9031L43.2881 31.9979ZM42.1239 19.7734L43.1194 19.6786L43.1189 19.6739L42.1239 19.7734ZM20.7309 19.9189L19.7387 19.7949L19.737 19.8083L19.7357 19.8218L20.7309 19.9189ZM19.5667 31.8524L18.5714 31.7553L18.5634 31.837L18.5689 31.9189L19.5667 31.8524ZM20.4399 44.9501H21.4399V44.9168L21.4377 44.8836L20.4399 44.9501ZM21.0705 47.0845C21.6063 47.2184 22.1492 46.8927 22.2832 46.3569C22.4171 45.8211 22.0914 45.2782 21.5556 45.1442L21.0705 47.0845ZM45.3255 8.7131L46.3178 8.83713L46.3216 8.80639L46.3236 8.77548L45.3255 8.7131ZM46.0532 13.9522L45.1587 14.3994L45.1712 14.4242L45.1849 14.4483L46.0532 13.9522ZM49.2548 16.1351L49.4974 15.165L49.4743 15.1592L49.451 15.1546L49.2548 16.1351ZM50.7101 16.1351L50.4932 15.1589L50.4804 15.1618L50.4676 15.165L50.7101 16.1351ZM53.9118 13.9522L54.7439 14.5069L54.7784 14.4551L54.8062 14.3994L53.9118 13.9522ZM55.8037 68.0894L54.804 68.0658L56.8023 68.1426L55.8037 68.0894ZM57.1135 43.4948L58.112 43.548L58.1139 43.5135L58.1133 43.4791L57.1135 43.4948ZM56.8224 25.0125L57.8223 24.9967L55.8227 24.9888L56.8224 25.0125ZM44.4723 68.139C44.4997 68.6906 44.969 69.1156 45.5206 69.0882C46.0722 69.0608 46.4972 68.5914 46.4698 68.0398L44.4723 68.139ZM45.4511 47.5201C45.4237 46.9685 44.9544 46.5435 44.4028 46.5709C43.8512 46.5983 43.4262 47.0676 43.4536 47.6192L45.4511 47.5201ZM59.1727 46.4725C59.1294 47.0231 59.5406 47.5046 60.0912 47.5479C60.6418 47.5912 61.1232 47.1799 61.1665 46.6293L59.1727 46.4725ZM61.1883 33.5988L62.1852 33.6772L62.1909 33.6047L62.1861 33.5322L61.1883 33.5988ZM60.6062 24.8669L61.604 24.8004L61.5983 24.7153L61.5783 24.6323L60.6062 24.8669ZM45.4711 18.4823C44.9188 18.4823 44.4711 18.93 44.4711 19.4823C44.4711 20.0346 44.9188 20.4823 45.4711 20.4823V18.4823ZM13.4357 44.659C13.4357 44.1068 12.988 43.659 12.4357 43.659C11.8834 43.659 11.4357 44.1068 11.4357 44.659H13.4357ZM11.4357 68.0894C11.4357 68.6417 11.8834 69.0894 12.4357 69.0894C12.988 69.0894 13.4357 68.6417 13.4357 68.0894H11.4357ZM51.7101 44.659C51.7101 44.1068 51.2624 43.659 50.7101 43.659C50.1579 43.659 49.7101 44.1068 49.7101 44.659H51.7101ZM49.7101 68.0894C49.7101 68.6417 50.1579 69.0894 50.7101 69.0894C51.2624 69.0894 51.7101 68.6417 51.7101 68.0894H49.7101ZM32.5002 16.4262C32.5002 15.8739 32.0524 15.4262 31.5002 15.4262C30.9479 15.4262 30.5002 15.8739 30.5002 16.4262H32.5002ZM30.5002 19.1913C30.5002 19.7436 30.9479 20.1913 31.5002 20.1913C32.0524 20.1913 32.5002 19.7436 32.5002 19.1913H30.5002ZM32.3546 23.1103C32.3489 22.558 31.8966 22.1149 31.3443 22.1206C30.7921 22.1263 30.349 22.5786 30.3547 23.1309L32.3546 23.1103ZM30.5002 37.2473C30.5059 37.7996 30.9582 38.2426 31.5105 38.237C32.0627 38.2313 32.5058 37.779 32.5001 37.2267L30.5002 37.2473ZM32.1493 46.1837L31.1545 46.286L32.1493 46.1837ZM30.7055 46.1837L29.7108 46.0814L30.7055 46.1837ZM9.49868 8.83713C9.70344 7.19902 11.121 6.22037 13.1634 6.22037V4.22037C10.5488 4.22037 7.89148 5.57021 7.51412 8.58906L9.49868 8.83713ZM13.1634 6.22037C14.1753 6.22037 15.0946 6.47552 15.7477 6.92015C16.3748 7.34716 16.7708 7.95128 16.8223 8.77548L18.8184 8.65072C18.7244 7.14643 17.9561 6.00419 16.8732 5.26696C15.8163 4.54735 14.4799 4.22037 13.1634 4.22037V6.22037ZM16.828 8.83713C16.8855 9.29677 16.8608 10.2191 16.7371 11.2086C16.6113 12.2152 16.4075 13.0866 16.1982 13.505L17.9871 14.3994C18.36 13.6536 18.5928 12.4875 18.7216 11.4567C18.8526 10.4088 18.9007 9.29366 18.8126 8.58906L16.828 8.83713ZM16.2244 13.456C15.7957 14.2064 14.8868 14.9162 13.6949 15.1546L14.0871 17.1157C15.8059 16.772 17.2255 15.7354 17.9609 14.4483L16.2244 13.456ZM13.6485 15.165C13.3926 15.229 13.2643 15.2443 13.1634 15.2443C13.0624 15.2443 12.9341 15.229 12.6782 15.165L12.1932 17.1053C12.5194 17.1868 12.8278 17.2443 13.1634 17.2443C13.499 17.2443 13.8073 17.1868 14.1335 17.1053L13.6485 15.165ZM12.6318 15.1546C12.0609 15.0404 11.4979 14.7774 11.0316 14.4464C10.5535 14.1071 10.2509 13.7498 10.1285 13.505L8.33962 14.3994C8.65381 15.0278 9.22441 15.6164 9.87412 16.0775C10.5357 16.5469 11.3552 16.9388 12.2396 17.1157L12.6318 15.1546ZM10.1285 13.505C9.91927 13.0866 9.71546 12.2152 9.58963 11.2086C9.46594 10.2191 9.44122 9.29677 9.49868 8.83713L7.51412 8.58906C7.42605 9.29366 7.47409 10.4088 7.60508 11.4567C7.73393 12.4875 7.96671 13.6536 8.33962 14.3994L10.1285 13.505ZM8.19551 68.0421L7.03127 43.4475L5.0335 43.5421L6.19775 68.1367L8.19551 68.0421ZM7.03226 43.5106L7.32332 25.0282L5.32357 24.9967L5.03251 43.4791L7.03226 43.5106ZM5.32365 25.0327L6.19683 68.1097L8.19642 68.0691L7.32324 24.9922L5.32365 25.0327ZM18.6739 68.1319L19.5471 47.6122L17.5489 47.5271L16.6757 68.0469L18.6739 68.1319ZM3.82764 46.4725L2.80893 33.5203L0.81509 33.6772L1.8338 46.6293L3.82764 46.4725ZM2.8098 33.6653L3.39192 24.9335L1.39635 24.8004L0.814227 33.5322L2.8098 33.6653ZM3.36621 25.1016C3.86066 23.0532 4.44522 21.9955 5.24985 21.392C6.0679 20.7785 7.31267 20.4823 9.52511 20.4823V18.4823C7.22611 18.4823 5.41475 18.7683 4.04985 19.792C2.67153 20.8257 1.94632 22.4603 1.42205 24.6323L3.36621 25.1016ZM9.52511 20.4823H17.5293V18.4823H9.52511V20.4823ZM27.1094 5.03975C27.3214 3.13214 29.0069 2 31.3546 2V0C28.4633 0 25.4918 1.4874 25.1217 4.81888L27.1094 5.03975ZM31.3546 2C32.5126 2 33.5777 2.29175 34.34 2.80955C35.076 3.30944 35.5417 4.0204 35.5953 4.98478L37.5922 4.87384C37.5002 3.21869 36.6561 1.96499 35.4638 1.15511C34.2979 0.363141 32.8162 0 31.3546 0V2ZM35.5987 5.02882C35.6614 5.65567 35.6325 6.73903 35.4925 7.84128C35.3487 8.97359 35.1103 9.93526 34.8464 10.4104L36.5947 11.3817C37.0584 10.5471 37.3293 9.25302 37.4766 8.09323C37.6277 6.90339 37.6716 5.65826 37.5888 4.82981L35.5987 5.02882ZM34.8523 10.3999C34.6467 10.7596 34.2448 11.2064 33.7092 11.6003C33.177 11.9916 32.5822 12.2794 32.0317 12.3895L32.4239 14.3506C33.3288 14.1697 34.1892 13.7298 34.894 13.2116C35.5954 12.6958 36.2122 12.0512 36.5888 11.3922L34.8523 10.3999ZM31.9853 12.3999C31.5767 12.5021 31.2936 12.5127 30.6776 12.3895L30.2853 14.3506C31.1246 14.5185 31.7147 14.5291 32.4703 14.3402L31.9853 12.3999ZM30.6603 12.3862C29.3955 12.1562 28.3172 11.2053 27.857 10.3999L26.1205 11.3922C26.8245 12.6242 28.3657 14.0018 30.3026 14.3539L30.6603 12.3862ZM27.9025 10.4899C27.6773 9.98306 27.4714 8.98764 27.3259 7.84128C27.1846 6.72869 27.1155 5.60721 27.1155 4.92931H25.1155C25.1155 5.70672 25.192 6.91373 25.3418 8.09323C25.4873 9.23897 25.7181 10.4993 26.0749 11.3022L27.9025 10.4899ZM40.2132 70.9868L39.9221 49.0117L37.9223 49.0382L38.2133 71.0132L40.2132 70.9868ZM39.9221 49.0137L39.6311 23.1093L37.6312 23.1318L37.9223 49.0362L39.9221 49.0137ZM29.1477 71.1023L31.7003 46.286L29.7108 46.0814L27.1582 70.8977L29.1477 71.1023ZM31.1545 46.286L33.7071 71.1023L35.6966 70.8977L33.144 46.0814L31.1545 46.286ZM23.3693 23.1037L22.9327 49.0081L24.9325 49.0418L25.369 23.1374L23.3693 23.1037ZM22.9327 49.0117L22.6416 70.9868L24.6414 71.0132L24.9325 49.0382L22.9327 49.0117ZM24.6414 71.0152L25.3691 23.1358L23.3693 23.1054L22.6416 70.9848L24.6414 71.0152ZM41.7843 47.23C42.2747 47.1074 42.7055 46.8419 43.0054 46.4296C43.2998 46.0248 43.4149 45.552 43.4149 45.0956H41.4149C41.4149 45.1584 41.407 45.1996 41.4002 45.2233C41.3967 45.2351 41.3935 45.2426 41.3915 45.247C41.3894 45.2512 41.3881 45.253 41.3879 45.2533C41.3877 45.2536 41.3877 45.2536 41.3875 45.2538C41.3872 45.254 41.3855 45.2556 41.3812 45.2584C41.3732 45.2636 41.3492 45.2772 41.2992 45.2897L41.7843 47.23ZM43.4127 45.1622L44.2859 32.0644L42.2903 31.9314L41.4171 45.0291L43.4127 45.1622ZM44.2836 31.9031L43.1194 19.6786L41.1284 19.8682L42.2926 32.0927L44.2836 31.9031ZM43.1189 19.6739C43.0229 18.7144 42.3899 18.0065 41.6699 17.5112C40.9427 17.0111 39.9917 16.6286 38.9486 16.3364C36.853 15.7494 34.1502 15.4626 31.482 15.4626C28.8143 15.4626 26.0996 15.7493 23.9822 16.3563C22.9273 16.6587 21.9638 17.0565 21.2227 17.5796C20.4834 18.1014 19.8595 18.8282 19.7387 19.7949L21.7232 20.043C21.7479 19.8454 21.888 19.558 22.3761 19.2135C22.8623 18.8703 23.5894 18.5495 24.5333 18.2788C26.4135 17.7398 28.9288 17.4626 31.482 17.4626C34.0347 17.4626 36.5436 17.7397 38.4091 18.2623C39.3467 18.525 40.0635 18.8338 40.5364 19.1591C41.0164 19.4892 41.1156 19.7409 41.1288 19.8729L43.1189 19.6739ZM19.7357 19.8218L18.5714 31.7553L20.562 31.9495L21.7262 20.016L19.7357 19.8218ZM18.5689 31.9189L19.4421 45.0166L21.4377 44.8836L20.5645 31.7859L18.5689 31.9189ZM19.4399 44.9501C19.4399 45.4065 19.555 45.8793 19.8494 46.2841C20.1493 46.6964 20.5801 46.9619 21.0705 47.0845L21.5556 45.1442C21.5056 45.1317 21.4816 45.118 21.4736 45.1129C21.4693 45.1101 21.4675 45.1085 21.4673 45.1082C21.4671 45.108 21.4671 45.108 21.4669 45.1078C21.4667 45.1075 21.4654 45.1057 21.4633 45.1014C21.4613 45.0971 21.4581 45.0895 21.4546 45.0778C21.4477 45.0541 21.4399 45.0128 21.4399 44.9501H19.4399ZM55.6317 8.58906C55.2544 5.57021 52.5971 4.22037 49.9825 4.22037V6.22037C52.0249 6.22037 53.4424 7.19902 53.6472 8.83713L55.6317 8.58906ZM49.9825 4.22037C48.666 4.22037 47.3295 4.54735 46.2726 5.26696C45.1898 6.00419 44.4215 7.14643 44.3275 8.65072L46.3236 8.77548C46.3751 7.95128 46.771 7.34716 47.3982 6.92015C48.0512 6.47552 48.9705 6.22037 49.9825 6.22037V4.22037ZM44.3332 8.58906C44.2452 9.29366 44.2932 10.4088 44.4242 11.4567C44.5531 12.4875 44.7858 13.6536 45.1587 14.3994L46.9476 13.505C46.7384 13.0866 46.5346 12.2152 46.4088 11.2086C46.2851 10.2191 46.2603 9.29677 46.3178 8.83713L44.3332 8.58906ZM45.1849 14.4483C45.9204 15.7354 47.34 16.772 49.0587 17.1157L49.451 15.1546C48.2591 14.9162 47.3502 14.2064 46.9214 13.456L45.1849 14.4483ZM49.0123 17.1053C49.3386 17.1868 49.6469 17.2443 49.9825 17.2443C50.3181 17.2443 50.6264 17.1868 50.9527 17.1053L50.4676 15.165C50.2117 15.229 50.0835 15.2443 49.9825 15.2443C49.8815 15.2443 49.7532 15.229 49.4974 15.165L49.0123 17.1053ZM50.9271 17.1113C52.5112 16.7593 54.0321 15.5745 54.7439 14.5069L53.0798 13.3975C52.6273 14.0762 51.5286 14.9289 50.4932 15.1589L50.9271 17.1113ZM54.8062 14.3994C55.1791 13.6536 55.4119 12.4875 55.5408 11.4567C55.6718 10.4088 55.7198 9.29366 55.6317 8.58906L53.6472 8.83713C53.7046 9.29677 53.6799 10.2191 53.5562 11.2086C53.4304 12.2152 53.2266 13.0866 53.0174 13.505L54.8062 14.3994ZM56.8023 68.1426L58.112 43.548L56.1149 43.4416L54.8051 68.0362L56.8023 68.1426ZM58.1133 43.4791L57.8223 24.9967L55.8225 25.0282L56.1136 43.5106L58.1133 43.4791ZM55.8227 24.9888L54.804 68.0658L56.8034 68.113L57.8221 25.0361L55.8227 24.9888ZM46.4698 68.0398L45.4511 47.5201L43.4536 47.6192L44.4723 68.139L46.4698 68.0398ZM61.1665 46.6293L62.1852 33.6772L60.1914 33.5203L59.1727 46.4725L61.1665 46.6293ZM62.1861 33.5322L61.604 24.8004L59.6084 24.9335L60.1905 33.6653L62.1861 33.5322ZM61.5783 24.6323C61.054 22.4603 60.3288 20.8257 58.9505 19.792C57.5856 18.7683 55.7742 18.4823 53.4752 18.4823V20.4823C55.6876 20.4823 56.9324 20.7785 57.7505 21.392C58.5551 21.9955 59.1397 23.0532 59.6341 25.1016L61.5783 24.6323ZM53.4752 18.4823H45.4711V20.4823H53.4752V18.4823ZM11.4357 44.659V68.0894H13.4357V44.659H11.4357ZM49.7101 44.659V68.0894H51.7101V44.659H49.7101ZM30.5002 16.4262V19.1913H32.5002V16.4262H30.5002ZM30.3547 23.1309L30.5002 37.2473L32.5001 37.2267L32.3546 23.1103L30.3547 23.1309ZM37.6312 23.1327L38.2133 71.0122L40.2132 70.9878L39.6311 23.1084L37.6312 23.1327ZM31.4274 46.5322C31.2868 46.5322 31.1689 46.4259 31.1545 46.286L33.144 46.0814C33.0535 45.2013 32.3121 44.5322 31.4274 44.5322V46.5322ZM31.7003 46.286C31.6859 46.4259 31.568 46.5322 31.4274 46.5322V44.5322C30.5427 44.5322 29.8013 45.2013 29.7108 46.0814L31.7003 46.286Z" fill="#CF1619"/>
</svg>