<svg width="26" height="70" viewBox="0 0 26 70" fill="none" xmlns="http://www.w3.org/2000/svg">
	<g clip-path="url(#clip0)">
	<path d="M5.28367 50.0865C5.73442 50.4057 6.35853 50.299 6.67766 49.8482C6.99678 49.3975 6.89007 48.7734 6.43932 48.4542L5.28367 50.0865ZM2.25456 46.7167L1.25858 46.8063L1.29993 47.2661L1.67673 47.5329L2.25456 46.7167ZM1.05225 33.3476L0.0537454 33.2929L0.0497848 33.3652L0.0562657 33.4372L1.05225 33.3476ZM1.6534 22.382L2.65199 22.4367L2.65253 22.4236L1.6534 22.382ZM12.9251 17.5751V16.5751H12.9116L12.8981 16.5755L12.9251 17.5751ZM24.1968 22.382L25.1953 22.3272L25.1945 22.3131L25.1933 22.2989L24.1968 22.382ZM24.7979 33.3476L25.7939 33.4372L25.8004 33.3652L25.7964 33.2929L24.7979 33.3476ZM23.5956 46.7167L24.1734 47.5329L24.5502 47.2661L24.5916 46.8063L23.5956 46.7167ZM19.4108 48.4542C18.9601 48.7734 18.8534 49.3975 19.1725 49.8482C19.4916 50.299 20.1157 50.4057 20.5665 50.0865L19.4108 48.4542ZM5.41063 24.1846L6.40942 24.1354C6.38266 23.5916 5.92577 23.1691 5.38154 23.185C4.83731 23.2008 4.40576 23.6491 4.41067 24.1936L5.41063 24.1846ZM5.56092 40.8584L4.56096 40.8674L4.56124 40.8989L4.56351 40.9304L5.56092 40.8584ZM7.66496 70L6.66756 70.072L8.66376 69.9509L7.66496 70ZM7.36439 5.40774L6.36987 5.303L6.36935 5.30818L7.36439 5.40774ZM18.4858 5.40774L17.4872 5.46032L17.4884 5.48385L17.4907 5.50729L18.4858 5.40774ZM17.584 11.7167L16.7362 11.1866L16.711 11.2269L16.6897 11.2694L17.584 11.7167ZM13.8268 14.4206L14.0228 15.4012L14.0566 15.3945L14.0898 15.3854L13.8268 14.4206ZM12.0233 14.4206L11.7604 15.3854L11.8091 15.3987L11.859 15.407L12.0233 14.4206ZM8.26612 11.7167L9.16046 11.2694L9.15074 11.2499L9.14018 11.2309L8.26612 11.7167ZM11.9251 70C11.9251 70.5523 12.3728 71 12.9251 71C13.4774 71 13.9251 70.5523 13.9251 70H11.9251ZM13.9251 44.4635C13.9251 43.9112 13.4774 43.4635 12.9251 43.4635C12.3728 43.4635 11.9251 43.9112 11.9251 44.4635H13.9251ZM20.4395 24.1846L21.4395 24.1936C21.4444 23.6491 21.0129 23.2008 20.4686 23.185C19.9244 23.1691 19.4675 23.5916 19.4407 24.1354L20.4395 24.1846ZM20.2892 40.8584L21.2866 40.9304L21.2889 40.8989L21.2892 40.8674L20.2892 40.8584ZM18.1852 70L17.1864 69.9509L19.1826 70.072L18.1852 70ZM13.9251 24.1846C13.9251 23.6323 13.4774 23.1846 12.9251 23.1846C12.3728 23.1846 11.9251 23.6323 11.9251 24.1846H13.9251ZM11.9251 37.7039C11.9251 38.2562 12.3728 38.7039 12.9251 38.7039C13.4774 38.7039 13.9251 38.2562 13.9251 37.7039H11.9251ZM11.9251 20.7296C11.9251 21.2819 12.3728 21.7296 12.9251 21.7296C13.4774 21.7296 13.9251 21.2819 13.9251 20.7296H11.9251ZM6.43932 48.4542L2.83238 45.9006L1.67673 47.5329L5.28367 50.0865L6.43932 48.4542ZM3.25054 46.6272L2.04823 33.2581L0.0562657 33.4372L1.25858 46.8063L3.25054 46.6272ZM2.05075 33.4024L2.6519 22.4367L0.654902 22.3272L0.0537454 33.2929L2.05075 33.4024ZM2.65253 22.4236C2.70095 21.2622 3.59395 20.3218 5.58904 19.6274C7.5452 18.9466 10.2017 18.649 12.9521 18.5748L12.8981 16.5755C10.0878 16.6514 7.18357 16.9547 4.93164 17.7385C2.71864 18.5087 0.756142 19.8966 0.65427 22.3403L2.65253 22.4236ZM12.9251 18.5751C15.6552 18.5751 18.266 18.8728 20.1946 19.5675C22.1507 20.272 23.0993 21.2544 23.2002 22.4651L25.1933 22.2989C24.9937 19.9045 23.0867 18.4834 20.8723 17.6858C18.6304 16.8783 15.7556 16.5751 12.9251 16.5751V18.5751ZM23.1983 22.4367L23.7994 33.4024L25.7964 33.2929L25.1953 22.3272L23.1983 22.4367ZM23.8019 33.2581L22.5996 46.6272L24.5916 46.8063L25.7939 33.4372L23.8019 33.2581ZM23.0178 45.9006L19.4108 48.4542L20.5665 50.0865L24.1734 47.5329L23.0178 45.9006ZM4.41067 24.1936L4.56096 40.8674L6.56088 40.8494L6.41059 24.1755L4.41067 24.1936ZM4.56351 40.9304L6.66756 70.072L8.66237 69.928L6.55832 40.7864L4.56351 40.9304ZM8.66376 69.9509L6.40942 24.1354L4.41184 24.2337L6.66617 70.0491L8.66376 69.9509ZM8.35889 5.51247C8.58688 3.34759 10.5273 2.05151 12.9251 2.05151V0.0515137C9.9125 0.0515137 6.74305 1.75973 6.36989 5.303L8.35889 5.51247ZM12.9251 2.05151C14.1898 2.05151 15.3251 2.38583 16.1346 2.97016C16.9203 3.53734 17.429 4.35553 17.4872 5.46032L19.4844 5.35515C19.3923 3.60587 18.5484 2.24594 17.3052 1.34853C16.0858 0.468266 14.5158 0.0515137 12.9251 0.0515137V2.05151ZM17.4907 5.50729C17.5559 6.15812 17.5258 7.35511 17.3803 8.55451C17.3085 9.14683 17.2114 9.71482 17.0925 10.1946C16.9686 10.6944 16.8391 11.0219 16.7362 11.1866L18.4319 12.2469C18.7047 11.8107 18.8946 11.2369 19.0337 10.6759C19.1778 10.0947 19.2873 9.44225 19.3658 8.79529C19.5209 7.51615 19.566 6.15949 19.4808 5.30818L17.4907 5.50729ZM16.6897 11.2694C16.256 12.1363 15.0432 13.0526 13.5638 13.4558L14.0898 15.3854C15.9168 14.8874 17.7097 13.7006 18.4784 12.1641L16.6897 11.2694ZM13.6308 13.44C13.2551 13.5151 13.1165 13.5333 12.9814 13.5333C12.8327 13.5333 12.6495 13.5111 12.1877 13.4342L11.859 15.407C12.2989 15.4803 12.6417 15.5333 12.9814 15.5333C13.3348 15.5333 13.6471 15.4763 14.0228 15.4012L13.6308 13.44ZM12.2863 13.4558C10.807 13.0526 9.59414 12.1363 9.16046 11.2694L7.37178 12.1641C8.14041 13.7006 9.93335 14.8874 11.7604 15.3854L12.2863 13.4558ZM9.14018 11.2309C8.86687 10.7392 8.619 9.70957 8.46961 8.49636C8.32435 7.31671 8.29434 6.15772 8.35942 5.50729L6.36935 5.30818C6.28414 6.1599 6.32928 7.47944 6.4846 8.74079C6.63579 9.96856 6.91392 11.3423 7.39207 12.2026L9.14018 11.2309ZM13.9251 70V44.4635H11.9251V70H13.9251ZM19.4396 24.1755L19.2893 40.8494L21.2892 40.8674L21.4395 24.1936L19.4396 24.1755ZM19.2918 40.7864L17.1878 69.928L19.1826 70.072L21.2866 40.9304L19.2918 40.7864ZM19.184 70.0491L21.4383 24.2337L19.4407 24.1354L17.1864 69.9509L19.184 70.0491ZM11.9251 24.1846V37.7039H13.9251V24.1846H11.9251ZM11.9251 17.5751V20.7296H13.9251V17.5751H11.9251Z" fill="#CF1619"/>
	</g>
	<defs>
	<clipPath id="clip0">
	<rect width="26" height="70" fill="white"/>
	</clipPath>
	</defs>
</svg>