<svg width="84" height="84" viewBox="0 0 84 84" fill="none" xmlns="http://www.w3.org/2000/svg">
	<path d="M61.3 60.9001L61.5 60.8C63.2 59.3 64.2 57.1 64.2 54.8C64.2 50.4 60.6 46.8 56.2 46.8C51.8 46.8 48.2 50.4 48.2 54.8C48.2 57 49.2 59.2001 50.9 60.7001L51.1 60.8V68.9001C51.1 69.2001 51.3 69.5 51.6 69.7C51.9 69.9 52.3 69.8 52.6 69.7L56.3 67.2L60 69.7C60.3 69.9 60.6 69.9 60.9 69.7C61.2 69.5 61.4 69.2001 61.4 68.9001V60.9001H61.3ZM59.5 67.2L56.7 65.3001C56.4 65.1001 56 65.1001 55.7 65.3001L52.9 67.2V62L53.6 62.2001C55.3 62.8001 57.2 62.8001 58.9 62.2001L59.6 62V67.2H59.5ZM56.2 60.9001C52.8 60.9001 50 58.1 50 54.7001C50 51.3001 52.8 48.5 56.2 48.5C59.6 48.5 62.4 51.3001 62.4 54.7001C62.4 58.1 59.6 60.9001 56.2 60.9001Z" fill="#CF1619"/>
	<path d="M50 14.2H32.6V16H50V14.2Z" fill="#CF1619"/>
	<path d="M64.1 22.7H19.8V24.5H64.1V22.7Z" fill="#CF1619"/>
	<path d="M50 31.2H19.8V33H50V31.2Z" fill="#CF1619"/>
	<path d="M64.2 31.2H56.7V33H64.2V31.2Z" fill="#CF1619"/>
	<path d="M64.1 39.7H19.8V41.5H64.1V39.7Z" fill="#CF1619"/>
	<path d="M35.8 48.2H19.8V50H35.8V48.2Z" fill="#CF1619"/>
	<path d="M25.9 55.3H19.8V57.1H25.9V55.3Z" fill="#CF1619"/>
	<path d="M35.8 55.3H32.6V57.1H35.8V55.3Z" fill="#CF1619"/>
	<path d="M77.4 0H17.9C14.3 0 11.3 3 11.3 6.6V73.7H0.9C0.4 73.7 0 74.1 0 74.6V77.4C0 81 3 84 6.6 84H66.1C69.7 84 72.7 81 72.7 77.4V10.3H83.1C83.6 10.3 84 9.9 84 9.4V6.6C84 3 81.1 0 77.4 0ZM6.6 82.2C4 82.2 1.8 80.1 1.8 77.4V75.5H59.5V77.4C59.5 78.8 60 80.2 60.8 81.3L61.4 82.1H6.6V82.2ZM72.1 2.7C71.7 3.2 71.4 3.8 71.2 4.4V4.5C71.1 4.8 71 5.1 71 5.4V5.6C70.9 6 70.9 6.3 70.9 6.6V77.4C70.9 80 68.8 82.2 66.1 82.2C63.5 82.2 61.3 80.1 61.3 77.4V74.6C61.3 74.1 60.9 73.7 60.4 73.7H13.2V6.6C13.2 4 15.3 1.8 18 1.8H73L72.1 2.7ZM82.2 8.5H72.7V6.6C72.7 4 74.8 1.9 77.4 1.9C80 1.9 82.2 4 82.2 6.7V8.5Z" fill="#CF1619"/>
</svg>