<svg width="186" height="35" viewBox="0 0 186 35" fill="none" xmlns="http://www.w3.org/2000/svg">
	<g clip-path="url(#clip0)">
	<path d="M29.2707 12.7092L26.018 9.45654L22.7653 12.7092L26.018 15.9619L29.2707 12.7092Z" fill="white"/>
	<path d="M28.6 0H0V1.4H28.6V0Z" fill="white"/>
	<path d="M14.3 4H0V6.8H14.3V4Z" fill="white"/>
	<path d="M23.1 6.7002H14.3V9.5002H23.1V6.7002Z" fill="white"/>
	<path d="M181.9 0H179H176.2H173.1H169.6V2.4H173.1H176.2V16.3H179V2.4H181.9H185.4V0H181.9Z" fill="white"/>
	<path d="M80.8 13.9V8.6H91.5V6.3H80.8V2.4H91.6V0H80.8H78.2H78V16.3H78.2H80.8H91.8V13.9H80.8Z" fill="white"/>
	<path d="M137.3 13.9V8.6H148V6.3H137.3V2.4H148.1V0H137.3H134.7H134.5V16.3H134.7H137.3H148.3V13.9H137.3Z" fill="white"/>
	<path d="M47.4 0.000285774H38.1H36.2H35.3V16.3003H38.1V9.10029H47.4C47.4 9.10029 52.2 9.60029 52.2 4.60029C52.2 -0.399714 47.4 0.000285774 47.4 0.000285774ZM47.7 6.60029H38.1V2.60029H47.7C47.7 2.60029 49.4 2.60029 49.4 4.60029C49.4 6.60029 47.7 6.60029 47.7 6.60029Z" fill="white"/>
	<path d="M126.7 0.000285774H118.4H116.5H115.6V16.3003H118.4V9.10029H126.7C126.7 9.10029 131.5 9.60029 131.5 4.60029C131.5 -0.399714 126.7 0.000285774 126.7 0.000285774ZM127 6.60029H118.4V2.60029H127C127 2.60029 128.7 2.60029 128.7 4.60029C128.7 6.60029 127 6.60029 127 6.60029Z" fill="white"/>
	<path d="M74.2 0H71.4H71.1L64.6 13.3L58.1 0H57.5H55H54.7V16.3H57.5V5.1L63 16.3H63.1H66.1H66.2L71.4 5.6V16.3H74.2V0Z" fill="white"/>
	<path d="M164.7 16.3002H167.8L164.2 9.00022C165.6 8.70022 167.7 7.80022 167.7 4.50022C167.7 -0.499783 162.9 0.000217014 162.9 0.000217014H154.3H152.4H151.5V16.3002H154.3V9.10022H161.2L164.7 16.3002ZM154.2 2.60022H163.1C163.1 2.60022 164.8 2.60022 164.8 4.60022C164.8 6.60022 163.1 6.60022 163.1 6.60022H154.2V2.60022Z" fill="white"/>
	<path d="M97.5 0H94.1L100 8.1L94.1 16.3H97.5L103.4 8.1L97.5 0Z" fill="white"/>
	<path d="M112.9 0H109.4L103.5 8.1L109.4 16.3H112.9L106.9 8.1L112.9 0Z" fill="white"/>
	<path d="M40.2 23.7002V24.7002H37.5V32.4002H36.4V24.7002H33.7V23.7002H40.2Z" fill="white"/>
	<path d="M43.5 27.5001C43.3 27.2001 43 27.0001 42.5 27.0001C41.7 27.0001 41.1 27.6001 41.1 28.5001V32.5001H40.1V26.2001H41.1V26.8001C41.4 26.4001 41.8 26.1001 42.6 26.1001C43.5 26.1001 44 26.4001 44.4 27.0001L43.5 27.5001Z" fill="white"/>
	<path d="M47.4 28.8001H48.9V28.1001C48.9 27.2001 48.5 27.0001 47.5 27.0001C46.7 27.0001 46.3 27.1001 46 27.6001L45.2 27.1001C45.6 26.4001 46.3 26.1001 47.5 26.1001C49.1 26.1001 49.9 26.6001 49.9 28.1001V32.5001H48.9V31.9001C48.5 32.5001 48.1 32.6001 47.3 32.6001C45.8 32.6001 45 31.9001 45 30.7001C45 29.3001 46 28.8001 47.4 28.8001ZM48.9 29.7001H47.4C46.4 29.7001 46 30.0001 46 30.7001C46 31.4001 46.5 31.7001 47.3 31.7001C48.2 31.7001 48.9 31.5001 48.9 30.1001V29.7001Z" fill="white"/>
	<path d="M51.4 23.7002H52.5V24.8002H51.4V23.7002ZM51.5 26.2002H52.5V32.5002H51.5V26.2002Z" fill="white"/>
	<path d="M54.1 26.2001H55.1V26.8001C55.4 26.3001 55.9 26.1001 56.8 26.1001C58.2 26.1001 59.1 26.8001 59.1 28.6001V32.5001H58.1V28.6001C58.1 27.3001 57.4 27.0001 56.7 27.0001C55.8 27.0001 55.2 27.7001 55.2 28.5001V32.4001H54.2V26.2001H54.1Z" fill="white"/>
	<path d="M60.6 23.7002H61.7V24.8002H60.6V23.7002ZM60.6 26.2002H61.6V32.5002H60.6V26.2002Z" fill="white"/>
	<path d="M63.2 26.2001H64.2V26.8001C64.5 26.3001 65 26.1001 65.9 26.1001C67.3 26.1001 68.2 26.8001 68.2 28.6001V32.5001H67.2V28.6001C67.2 27.3001 66.5 27.0001 65.8 27.0001C64.9 27.0001 64.3 27.7001 64.3 28.5001V32.4001H63.3V26.2001H63.2Z" fill="white"/>
	<path d="M73.8 26.2001H74.8V32.4001C74.8 34.2001 73.8 35.0001 72.1 35.0001C71 35.0001 70.3 34.7001 69.9 33.9001L70.7 33.3001C71 33.8001 71.4 34.0001 72.2 34.0001C73.3 34.0001 73.8 33.4001 73.8 32.3001V31.9001C73.5 32.3001 72.9 32.6001 72.1 32.6001C70.4 32.6001 69.6 31.4001 69.6 29.7001V28.9001C69.6 27.1001 70.6 26.1001 72.1 26.1001C72.9 26.1001 73.5 26.4001 73.8 26.8001V26.2001ZM73.8 29.7001V28.9001C73.8 27.7001 73.2 27.0001 72.2 27.0001C71.2 27.0001 70.6 27.7001 70.6 28.9001V29.7001C70.6 30.8001 71.1 31.6001 72.2 31.6001C73.3 31.7001 73.8 30.8001 73.8 29.7001Z" fill="white"/>
	<path d="M77.6 27.6002C77.1 27.0002 76.7 26.4002 76.7 25.7002C76.7 24.5002 77.6 23.7002 78.8 23.7002C80.4 23.7002 80.9 24.6002 80.9 25.4002C80.9 26.4002 80 27.0002 79 27.7002L81.3 30.2002C81.6 29.7002 81.7 29.1002 81.7 28.5002H82.7C82.7 29.4002 82.5 30.2002 82 31.0002L83.5 32.6002H82L81.3 31.8002C80.7 32.3002 79.8 32.7002 78.8 32.7002C76.9 32.7002 76 31.5002 76 30.2002C76 28.9002 76.7 28.2002 77.6 27.6002ZM80.6 31.0002L78.1 28.3002C77.5 28.8002 77 29.4002 77 30.2002C77 31.1002 77.7 31.7002 78.7 31.7002C79.6 31.6002 80.2 31.4002 80.6 31.0002ZM78.4 27.0002C79.2 26.5002 79.8 26.1002 79.8 25.5002C79.8 25.2002 79.5 24.7002 78.8 24.7002C78.2 24.7002 77.8 25.1002 77.8 25.7002C77.7 26.1002 78.1 26.6002 78.4 27.0002Z" fill="white"/>
	<path d="M89.4 26.5002C89.1 25.1002 88.4 24.7002 87.3 24.7002C86 24.7002 85.2 25.5002 85.2 27.7002V28.7002C85.2 30.9002 85.9 31.7002 87.3 31.7002C88.4 31.7002 89.1 31.1002 89.4 29.9002H90.4C90.1 31.9002 88.9 32.7002 87.3 32.7002C85.4 32.7002 84.1 31.5002 84.1 28.7002V27.7002C84.1 24.9002 85.3 23.7002 87.3 23.7002C89 23.7002 90.2 24.6002 90.4 26.5002H89.4Z" fill="white"/>
	<path d="M96.4 31.5001C96 32.3001 95.3 32.6001 94.2 32.6001C92.5 32.6001 91.5 31.5001 91.5 29.7001V28.9001C91.5 27.1001 92.3 26.1001 94 26.1001C95.7 26.1001 96.5 27.1001 96.5 28.9001V29.6001H92.5V29.8001C92.5 30.9001 93 31.7001 94.1 31.7001C94.9 31.7001 95.3 31.5001 95.6 31.0001L96.4 31.5001ZM92.5 28.7001H95.5C95.5 27.6001 95 27.0001 94 27.0001C93 27.0001 92.5 27.6001 92.5 28.7001Z" fill="white"/>
	<path d="M101.2 27.5001C100.9 27.1001 100.6 27.0001 100.1 27.0001C99.3 27.0001 98.7 27.6001 98.7 28.5001V32.5001H97.7V26.2001H98.7V26.8001C99 26.4001 99.4 26.1001 100.2 26.1001C101.1 26.1001 101.6 26.4001 102 27.0001L101.2 27.5001Z" fill="white"/>
	<path d="M102.6 26.2003H103.4V24.8003H104.4V26.2003H105.9V27.1003H104.4V30.3003C104.4 31.2003 104.5 31.5003 105.3 31.5003H105.8V32.5003H105.3C103.8 32.5003 103.4 31.9003 103.4 30.6003V27.1003H102.6V26.2003Z" fill="white"/>
	<path d="M107.1 23.7002H108.2V24.8002H107.1V23.7002ZM107.1 26.2002H108.1V32.5002H107.1V26.2002Z" fill="white"/>
	<path d="M110.1 26.2003V25.7003C110.1 24.4003 110.5 23.8003 112 23.8003H112.3V24.8003H112C111.2 24.8003 111.1 25.2003 111.1 26.0003V26.2003H114.1V32.5003H113.1V27.1003H111.1V32.5003H110.1V27.1003H109.3V26.2003H110.1Z" fill="white"/>
	<path d="M120.4 31.5001C120 32.2001 119.2 32.6001 118.2 32.6001C116.5 32.6001 115.5 31.5001 115.5 29.7001V28.9001C115.5 27.1001 116.5 26.1001 118.2 26.1001C119.1 26.1001 119.9 26.4001 120.4 27.1001L119.6 27.7001C119.3 27.3001 118.8 27.1001 118.2 27.1001C117.1 27.1001 116.5 27.8001 116.5 29.0001V29.8001C116.5 30.9001 117 31.7001 118.2 31.7001C118.8 31.7001 119.3 31.5001 119.6 31.0001L120.4 31.5001Z" fill="white"/>
	<path d="M123.5 28.8001H125V28.1001C125 27.2001 124.6 27.0001 123.6 27.0001C122.8 27.0001 122.4 27.1001 122.1 27.6001L121.3 27.1001C121.7 26.4001 122.4 26.1001 123.6 26.1001C125.2 26.1001 126 26.6001 126 28.1001V32.5001H125V31.9001C124.6 32.5001 124.2 32.6001 123.4 32.6001C121.9 32.6001 121.1 31.9001 121.1 30.7001C121.2 29.3001 122.1 28.8001 123.5 28.8001ZM125 29.7001H123.5C122.5 29.7001 122.1 30.0001 122.1 30.7001C122.1 31.4001 122.6 31.7001 123.4 31.7001C124.3 31.7001 125 31.5001 125 30.1001V29.7001Z" fill="white"/>
	<path d="M127 26.2003H127.8V24.8003H128.8V26.2003H130.3V27.1003H128.8V30.3003C128.8 31.2003 128.9 31.5003 129.7 31.5003H130.2V32.5003H129.7C128.2 32.5003 127.8 31.9003 127.8 30.6003V27.1003H127V26.2003Z" fill="white"/>
	<path d="M131.5 23.7002H132.6V24.8002H131.5V23.7002ZM131.5 26.2002H132.5V32.5002H131.5V26.2002Z" fill="white"/>
	<path d="M139.1 29.7001C139.1 31.3001 138.3 32.6001 136.5 32.6001C134.8 32.6001 133.9 31.5001 133.9 29.7001V28.9001C133.9 27.1001 134.9 26.1001 136.5 26.1001C138.2 26.1001 139.1 27.1001 139.1 28.9001V29.7001ZM138.1 29.7001V28.9001C138.1 27.7001 137.5 27.0001 136.5 27.0001C135.5 27.0001 134.9 27.7001 134.9 28.9001V29.7001C134.9 30.8001 135.4 31.6001 136.5 31.6001C137.6 31.7001 138.1 30.8001 138.1 29.7001Z" fill="white"/>
	<path d="M140.4 26.2001H141.4V26.8001C141.7 26.3001 142.2 26.1001 143.1 26.1001C144.5 26.1001 145.4 26.8001 145.4 28.6001V32.5001H144.4V28.6001C144.4 27.3001 143.7 27.0001 143 27.0001C142.1 27.0001 141.5 27.7001 141.5 28.5001V32.4001H140.5V26.2001H140.4Z" fill="white"/>
	</g>
	<defs>
	<clipPath id="clip0">
	<rect width="185.4" height="35" fill="white"/>
	</clipPath>
	</defs>
</svg>