<?xml version="1.0" encoding="utf-8"?>
<!-- Generator: Adobe Illustrator 22.1.0, SVG Export Plug-In . SVG Version: 6.00 Build 0)  -->
<svg version="1.1" id="Layer_2" xmlns="http://www.w3.org/2000/svg" xmlns:xlink="http://www.w3.org/1999/xlink" x="0px" y="0px"
	 viewBox="0 0 232.6 70.9" style="enable-background:new 0 0 232.6 70.9;" xml:space="preserve">
<style type="text/css">
	.Arched_x0020_Green{fill:url(#SVGID_1_);stroke:#FFFFFF;stroke-width:0.25;stroke-miterlimit:1;}
	.st0{fill:#E73137;}
	.st1{fill:#FFFFFF;}
</style>
<linearGradient id="SVGID_1_" gradientUnits="userSpaceOnUse" x1="43.75" y1="36.5933" x2="44.4571" y2="35.8862">
	<stop  offset="0" style="stop-color:#1DA238"/>
	<stop  offset="0.9831" style="stop-color:#24391D"/>
</linearGradient>
<rect class="st0" width="42.5" height="21.7"/>
<rect y="21.3" width="42.5" height="21.3"/>
<rect x="7.4" y="20" class="st1" width="27.7" height="2.6"/>
<g>
	<path d="M69.9,21.2c2,0,3.3-1.4,3.3-3.3c0-2.1-1.3-3.8-3.5-3.8h-9.2v7.1H69.9z M69.7,10.6c4.6,0,7.5,3,7.5,7.2
		c0,4.4-2.9,6.9-7.5,6.9h-9.2v7.1h-3.9V10.6H69.7z"/>
	<path d="M91.7,13.6c-4.9,0-8.3,3.3-8.3,7.6c0,4.4,3.2,7.6,8.3,7.6c5,0,8.2-3.3,8.2-7.6C99.9,16.9,96.8,13.6,91.7,13.6 M91.7,32.4
		c-6.7,0-12.3-4.5-12.3-11.2C79.4,14.5,85,10,91.7,10c6.8,0,12.3,4.6,12.3,11.2C104,27.9,98.5,32.4,91.7,32.4"/>
	<path d="M120.3,32.4c-7.1,0-12.4-4.5-12.4-11.2c0-6.6,5.4-11.2,12.4-11.2c4.2,0,7.2,1.2,9.9,3.2l-2.1,3.1c-1.9-1.5-4.4-2.6-7.6-2.6
		c-5.2,0-8.4,3.3-8.4,7.5c0,4.4,3.2,7.5,8.4,7.5c3.2,0,5.8-1,7.8-2.5l2.1,3.1C127.6,31.2,124.5,32.4,120.3,32.4"/>
</g>
<path d="M165.8,23.2h8.2l-4.1-8.6L165.8,23.2z M164.2,26.7l-2.4,5.1h-4.2l10.3-21.2h4.1l10.3,21.2h-4.2l-2.4-5.1H164.2z"/>
<polygon points="203.1,31.8 203.1,22.7 189.2,22.7 189.2,31.8 185.3,31.8 185.3,10.6 189.2,10.6 189.2,19.3 203.1,19.3 203.1,10.6 
	207,10.6 207,31.8 "/>
<polygon points="212.8,31.8 212.8,10.6 216.7,10.6 216.7,20.5 227.4,10.6 232.2,10.6 221.2,20.8 232.6,31.8 227.4,31.8 216.7,21.5 
	216.7,31.8 "/>
<g>
	<path d="M148.1,28.3h-9.4v-6.4h9.4c2.5,0,3.9,1.3,3.9,3.2C151.9,27.2,150.8,28.3,148.1,28.3 M147.8,18.4h-9.2v-4.5h15.1v-3.3h-15.1
		h-3.9v21.2h13.1c4.6,0,7.8-2.5,7.8-6.7C155.6,20.7,152.5,18.4,147.8,18.4"/>
</g>
<g>
	<g>
		<path d="M5.9,65.4c-0.9-0.4-1.8-0.6-2.7-0.6c-1.2,0-1.9,0.3-1.9,0.7c0,1.4,5.5,0.3,5.5,3.2c0,1.2-1.1,2.1-3.4,2.1
			c-1.3,0-2.4-0.3-3.6-0.9l0.5-1.1c1.1,0.6,2,0.8,3.1,0.8c1.3,0,2.1-0.4,2.1-1c0-1.5-5.5-0.4-5.5-3.1c0-1.2,1.1-2,3.2-2
			c1.2,0,2.2,0.3,3.2,0.8L5.9,65.4z"/>
		<path d="M12,64.8c-1.6,0-2.7,1.1-2.7,2.5c0,1.4,1.1,2.5,2.7,2.5c1.6,0,2.7-1.1,2.7-2.5C14.7,65.8,13.7,64.8,12,64.8 M12,70.9
			c-2.2,0-4-1.5-4-3.7c0-2.2,1.8-3.7,4-3.7c2.2,0,4,1.5,4,3.7C16,69.4,14.2,70.9,12,70.9"/>
		<path d="M21.3,70.9c-2.3,0-4.1-1.5-4.1-3.7c0-2.2,1.8-3.7,4.1-3.7c1.4,0,2.3,0.4,3.2,1l-0.7,1c-0.6-0.5-1.4-0.8-2.5-0.8
			c-1.7,0-2.7,1.1-2.7,2.5c0,1.4,1.1,2.5,2.8,2.5c1.1,0,1.9-0.3,2.5-0.8l0.7,1C23.7,70.5,22.6,70.9,21.3,70.9"/>
	</g>
	<rect x="25.9" y="63.8" width="1.3" height="6.9"/>
	<polygon points="29,70.7 29,63.8 35.3,63.8 35.3,64.9 30.3,64.9 30.3,66.6 34.2,66.6 34.2,67.8 30.3,67.8 30.3,69.6 35.5,69.6 
		35.5,70.7 	"/>
	<polygon points="40.2,64.9 40.2,70.7 38.9,70.7 38.9,64.9 36.1,64.9 36.1,63.8 43,63.8 43,64.9 	"/>
	<polygon points="44.1,70.7 44.1,63.8 50.4,63.8 50.4,64.9 45.3,64.9 45.3,66.6 49.2,66.6 49.2,67.8 45.3,67.8 45.3,69.6 50.6,69.6 
		50.6,70.7 	"/>
	<g>
		<path d="M58.6,69.7c0.7,0,1.4-0.2,2-0.4v-2h1.2v2.7c-0.9,0.6-2.1,1-3.3,1c-2.3,0-4.1-1.5-4.1-3.7c0-2.2,1.8-3.7,4.1-3.7
			c1.3,0,2.3,0.4,3.2,1l-0.7,1c-0.6-0.5-1.4-0.8-2.5-0.8c-1.7,0-2.7,1-2.7,2.4C55.8,68.7,56.9,69.7,58.6,69.7"/>
	</g>
	<polygon points="63.5,70.7 63.5,63.8 69.8,63.8 69.8,64.9 64.8,64.9 64.8,66.6 68.7,66.6 68.7,67.8 64.8,67.8 64.8,69.6 70.1,69.6 
		70.1,70.7 	"/>
	<g>
		<path d="M72.7,70.7h-1.3v-6.9h1.3l4.5,5.2l0,0c-0.1-1.3-0.1-2.4-0.1-3.4v-1.8h1.2v6.9h-1.3l-4.5-5.2l0,0c0,1,0,2.8,0,3.4V70.7z"/>
	</g>
	<polygon points="80.3,70.7 80.3,63.8 86.6,63.8 86.6,64.9 81.6,64.9 81.6,66.6 85.5,66.6 85.5,67.8 81.6,67.8 81.6,69.6 86.8,69.6 
		86.8,70.7 	"/>
	<g>
		<path d="M92.5,67c0.8,0,1.3-0.4,1.3-1c0-0.7-0.4-1.1-1.1-1.1h-3.2V67H92.5z M91.5,68.2h-2.1v2.5h-1.3v-6.9h4.4
			c1.5,0,2.4,0.9,2.4,2.2c0,1.2-0.9,2-2,2.1l2.1,2.6h-1.6L91.5,68.2z"/>
	</g>
	<path d="M98.2,67.9h2.7l-1.3-2.8L98.2,67.9z M97.7,69l-0.8,1.7h-1.4l3.4-6.9h1.3l3.4,6.9h-1.4l-0.8-1.7H97.7z"/>
	<polygon points="104.5,70.7 104.5,63.8 105.8,63.8 105.8,69.6 110.4,69.6 110.4,70.7 	"/>
	<polygon points="111.4,70.7 111.4,63.8 117.7,63.8 117.7,64.9 112.7,64.9 112.7,66.6 116.6,66.6 116.6,67.8 112.7,67.8 112.7,69.6 
		117.9,69.6 117.9,70.7 	"/>
	<g>
		<path d="M126.2,69.7c0.7,0,1.4-0.2,2-0.4v-2h1.2V70c-0.9,0.6-2.1,1-3.3,1c-2.3,0-4.1-1.5-4.1-3.7c0-2.2,1.8-3.7,4.1-3.7
			c1.3,0,2.3,0.4,3.2,1l-0.7,1c-0.6-0.5-1.4-0.8-2.5-0.8c-1.7,0-2.7,1.1-2.7,2.4C123.5,68.7,124.5,69.7,126.2,69.7"/>
		<path d="M135.5,67c0.8,0,1.3-0.4,1.3-1c0-0.7-0.4-1.1-1.1-1.1h-3.2V67H135.5z M134.6,68.2h-2.1v2.6h-1.3v-6.9h4.5
			c1.5,0,2.4,0.9,2.4,2.2c0,1.2-0.9,2-2,2.1l2.1,2.6h-1.6L134.6,68.2z"/>
		<path d="M143.2,64.8c-1.6,0-2.7,1.1-2.7,2.5c0,1.4,1.1,2.5,2.7,2.5c1.6,0,2.7-1.1,2.7-2.5C145.9,65.9,144.8,64.8,143.2,64.8
			 M143.2,70.9c-2.2,0-4-1.5-4-3.7c0-2.2,1.8-3.7,4-3.7c2.2,0,4,1.5,4,3.7C147.2,69.5,145.4,70.9,143.2,70.9"/>
		<path d="M155.7,67.9c0,1.8-1.3,3-3.5,3c-2.2,0-3.5-1.3-3.5-3v-4.1h1.3v4c0,1.1,0.7,2,2.2,2c1.5,0,2.2-0.8,2.2-2v-4h1.3V67.9z"/>
		<path d="M161.8,67.3c0.7,0,1.1-0.5,1.1-1.1c0-0.7-0.4-1.2-1.2-1.2h-3v2.3H161.8z M161.7,63.8c1.5,0,2.5,1,2.5,2.4
			c0,1.4-1,2.2-2.5,2.2h-3v2.3h-1.3v-6.9H161.7z"/>
	</g>
</g>
</svg>
