<svg width="423" height="153" viewBox="0 0 423 153" fill="none" xmlns="http://www.w3.org/2000/svg">
	<path d="M192.959 91.6678V118H175.742V41.562H202.714C221.974 41.562 231.604 49.682 231.604 65.922C231.604 73.5977 228.833 79.8165 223.289 84.5784C217.781 89.3047 210.407 91.6678 201.168 91.6678H192.959ZM192.959 54.7814V78.6083H199.729C208.897 78.6083 213.481 74.5927 213.481 66.5616C213.481 58.7081 208.897 54.7814 199.729 54.7814H192.959ZM329.897 118H312.893V72.2651C312.893 67.3256 313.106 61.8708 313.533 55.9008H313.106C312.218 60.5915 311.418 63.9675 310.708 66.0286L292.798 118H278.725L260.495 66.5616C259.998 65.1757 259.198 61.6221 258.097 55.9008H257.617C258.079 63.4344 258.31 70.0441 258.31 75.7299V118H242.798V41.562H268.011L283.629 86.8704C284.873 90.4951 285.779 94.1376 286.348 97.7978H286.668C287.627 93.569 288.64 89.891 289.706 86.7638L305.324 41.562H329.897V118ZM393.116 118H347.274V41.562H391.357V55.581H364.491V72.585H389.491V86.5506H364.491V104.034H393.116V118Z" fill="white"/>
	<path d="M412.339 59.293C409.737 59.293 407.597 58.4844 405.917 56.8672C404.245 55.25 403.409 53.1758 403.409 50.6445C403.409 48.168 404.269 46.0938 405.987 44.4219C407.714 42.75 409.862 41.9141 412.433 41.9141C414.995 41.9141 417.12 42.7305 418.808 44.3633C420.495 45.9883 421.339 48.0664 421.339 50.5977C421.339 53.0742 420.472 55.1445 418.737 56.8086C417.011 58.4648 414.878 59.293 412.339 59.293ZM412.386 43.2266C410.237 43.2266 408.464 43.9297 407.065 45.3359C405.667 46.7422 404.968 48.4961 404.968 50.5977C404.968 52.7227 405.675 54.4844 407.089 55.8828C408.511 57.2734 410.276 57.9688 412.386 57.9688C414.456 57.9688 416.206 57.2695 417.636 55.8711C419.065 54.4648 419.78 52.7148 419.78 50.6211C419.78 48.4961 419.077 46.7344 417.671 45.3359C416.265 43.9297 414.503 43.2266 412.386 43.2266ZM416.968 55.9062H413.991L413.101 53.1875C412.788 52.2344 412.358 51.7578 411.812 51.7578H410.944V55.9062H408.472V45.1016H412.222C415.112 45.1016 416.558 46.125 416.558 48.1719C416.558 49.6484 415.71 50.6016 414.015 51.0312V51.0781C414.718 51.2344 415.272 51.8047 415.679 52.7891L416.968 55.9062ZM410.944 47.1641V49.8594H412.245C413.331 49.8594 413.874 49.3945 413.874 48.4648C413.874 47.5977 413.249 47.1641 411.999 47.1641H410.944Z" fill="white"/>
	<path d="M179.781 145.025V149H177.182V137.46H181.254C184.162 137.46 185.616 138.686 185.616 141.138C185.616 142.297 185.197 143.235 184.36 143.954C183.529 144.668 182.416 145.025 181.021 145.025H179.781ZM179.781 139.456V143.053H180.803C182.188 143.053 182.88 142.447 182.88 141.234C182.88 140.049 182.188 139.456 180.803 139.456H179.781ZM192.432 143.053C192.126 142.887 191.769 142.804 191.362 142.804C190.809 142.804 190.377 143.007 190.066 143.415C189.755 143.817 189.599 144.367 189.599 145.065V149H187.056V140.759H189.599V142.288H189.631C190.034 141.173 190.758 140.615 191.804 140.615C192.072 140.615 192.282 140.647 192.432 140.711V143.053ZM197.55 149.201C196.177 149.201 195.096 148.818 194.307 148.05C193.524 147.278 193.132 146.232 193.132 144.912C193.132 143.549 193.54 142.484 194.355 141.717C195.171 140.945 196.273 140.558 197.663 140.558C199.031 140.558 200.104 140.945 200.882 141.717C201.659 142.484 202.048 143.501 202.048 144.767C202.048 146.135 201.646 147.216 200.841 148.01C200.042 148.804 198.945 149.201 197.55 149.201ZM197.614 142.506C197.013 142.506 196.547 142.712 196.214 143.125C195.881 143.539 195.715 144.123 195.715 144.88C195.715 146.462 196.354 147.254 197.63 147.254C198.848 147.254 199.457 146.441 199.457 144.815C199.457 143.276 198.843 142.506 197.614 142.506ZM204.986 139.456C204.557 139.456 204.205 139.33 203.932 139.078C203.658 138.82 203.521 138.506 203.521 138.136C203.521 137.755 203.658 137.444 203.932 137.203C204.205 136.961 204.557 136.84 204.986 136.84C205.42 136.84 205.772 136.961 206.04 137.203C206.314 137.444 206.45 137.755 206.45 138.136C206.45 138.522 206.314 138.839 206.04 139.086C205.772 139.332 205.42 139.456 204.986 139.456ZM206.241 148.855C206.241 150.073 205.943 151.047 205.348 151.776C204.752 152.506 203.894 152.871 202.773 152.871C202.403 152.871 201.997 152.79 201.558 152.629V150.634C201.912 150.832 202.225 150.931 202.499 150.931C203.298 150.931 203.698 150.304 203.698 149.048V140.759H206.241V148.855ZM215.785 145.604H210.41C210.496 146.8 211.249 147.399 212.671 147.399C213.578 147.399 214.374 147.184 215.061 146.755V148.59C214.299 148.997 213.309 149.201 212.092 149.201C210.761 149.201 209.728 148.834 208.993 148.099C208.258 147.358 207.891 146.328 207.891 145.009C207.891 143.64 208.288 142.557 209.082 141.757C209.876 140.958 210.852 140.558 212.011 140.558C213.213 140.558 214.141 140.915 214.795 141.629C215.455 142.342 215.785 143.311 215.785 144.534V145.604ZM213.427 144.043C213.427 142.863 212.95 142.272 211.995 142.272C211.587 142.272 211.233 142.441 210.933 142.779C210.638 143.117 210.458 143.539 210.394 144.043H213.427ZM223.543 148.702C222.969 149.035 222.14 149.201 221.056 149.201C219.79 149.201 218.766 148.818 217.982 148.05C217.199 147.283 216.807 146.293 216.807 145.081C216.807 143.681 217.226 142.578 218.063 141.773C218.905 140.963 220.029 140.558 221.435 140.558C222.406 140.558 223.108 140.687 223.543 140.945V143.101C223.012 142.704 222.419 142.506 221.764 142.506C221.035 142.506 220.455 142.72 220.026 143.15C219.602 143.573 219.391 144.161 219.391 144.912C219.391 145.642 219.594 146.216 220.002 146.634C220.41 147.047 220.97 147.254 221.684 147.254C222.317 147.254 222.937 147.055 223.543 146.658V148.702ZM230.198 148.903C229.823 149.102 229.257 149.201 228.5 149.201C226.708 149.201 225.812 148.27 225.812 146.409V142.635H224.476V140.759H225.812V138.981L228.347 138.257V140.759H230.198V142.635H228.347V145.966C228.347 146.825 228.688 147.254 229.369 147.254C229.638 147.254 229.914 147.176 230.198 147.02V148.903ZM249.592 149H247.025V142.095C247.025 141.35 247.057 140.526 247.122 139.625H247.057C246.923 140.333 246.803 140.843 246.695 141.154L243.991 149H241.867L239.115 141.234C239.04 141.025 238.919 140.489 238.752 139.625H238.68C238.75 140.762 238.785 141.76 238.785 142.618V149H236.443V137.46H240.249L242.607 144.3C242.795 144.848 242.932 145.397 243.018 145.95H243.066C243.211 145.312 243.364 144.756 243.525 144.284L245.882 137.46H249.592V149ZM258.823 149H256.416V147.817H256.384C255.832 148.74 255.014 149.201 253.93 149.201C253.13 149.201 252.5 148.976 252.039 148.525C251.583 148.069 251.355 147.463 251.355 146.706C251.355 145.108 252.302 144.185 254.195 143.938L256.433 143.64C256.433 142.739 255.944 142.288 254.968 142.288C253.986 142.288 253.053 142.581 252.167 143.166V141.25C252.522 141.068 253.004 140.907 253.616 140.768C254.233 140.628 254.794 140.558 255.298 140.558C257.648 140.558 258.823 141.731 258.823 144.075V149ZM256.433 145.652V145.097L254.936 145.29C254.11 145.397 253.696 145.77 253.696 146.409C253.696 146.698 253.796 146.937 253.994 147.125C254.198 147.307 254.472 147.399 254.815 147.399C255.293 147.399 255.681 147.235 255.982 146.908C256.282 146.575 256.433 146.157 256.433 145.652ZM268.793 149H266.258V144.421C266.258 143.144 265.802 142.506 264.89 142.506C264.45 142.506 264.088 142.675 263.804 143.013C263.52 143.351 263.377 143.78 263.377 144.3V149H260.834V140.759H263.377V142.063H263.41C264.016 141.06 264.898 140.558 266.057 140.558C267.881 140.558 268.793 141.69 268.793 143.954V149ZM277.67 149H275.263V147.817H275.231C274.679 148.74 273.86 149.201 272.777 149.201C271.977 149.201 271.347 148.976 270.886 148.525C270.43 148.069 270.202 147.463 270.202 146.706C270.202 145.108 271.149 144.185 273.042 143.938L275.28 143.64C275.28 142.739 274.791 142.288 273.815 142.288C272.833 142.288 271.9 142.581 271.014 143.166V141.25C271.368 141.068 271.851 140.907 272.463 140.768C273.08 140.628 273.641 140.558 274.145 140.558C276.495 140.558 277.67 141.731 277.67 144.075V149ZM275.28 145.652V145.097L273.783 145.29C272.956 145.397 272.543 145.77 272.543 146.409C272.543 146.698 272.643 146.937 272.841 147.125C273.045 147.307 273.319 147.399 273.662 147.399C274.139 147.399 274.528 147.235 274.829 146.908C275.129 146.575 275.28 146.157 275.28 145.652ZM287.761 148.058C287.761 149.587 287.318 150.77 286.433 151.607C285.548 152.45 284.266 152.871 282.587 152.871C281.476 152.871 280.596 152.713 279.947 152.396V150.255C280.795 150.749 281.65 150.996 282.514 150.996C283.372 150.996 284.038 150.768 284.51 150.312C284.982 149.861 285.218 149.247 285.218 148.469V147.817H285.186C284.606 148.74 283.751 149.201 282.619 149.201C281.567 149.201 280.733 148.831 280.116 148.091C279.499 147.35 279.191 146.358 279.191 145.113C279.191 143.718 279.534 142.61 280.221 141.79C280.907 140.969 281.811 140.558 282.933 140.558C283.936 140.558 284.687 140.945 285.186 141.717H285.218V140.759H287.761V148.058ZM285.25 145.041V144.389C285.25 143.868 285.095 143.426 284.783 143.061C284.478 142.691 284.078 142.506 283.584 142.506C283.021 142.506 282.578 142.726 282.257 143.166C281.935 143.606 281.774 144.225 281.774 145.025C281.774 145.711 281.927 146.256 282.232 146.658C282.538 147.055 282.957 147.254 283.488 147.254C284.014 147.254 284.437 147.053 284.759 146.65C285.087 146.242 285.25 145.706 285.25 145.041ZM297.289 145.604H291.913C291.999 146.8 292.753 147.399 294.175 147.399C295.081 147.399 295.878 147.184 296.565 146.755V148.59C295.803 148.997 294.813 149.201 293.595 149.201C292.265 149.201 291.232 148.834 290.497 148.099C289.762 147.358 289.395 146.328 289.395 145.009C289.395 143.64 289.792 142.557 290.586 141.757C291.38 140.958 292.356 140.558 293.515 140.558C294.717 140.558 295.645 140.915 296.299 141.629C296.959 142.342 297.289 143.311 297.289 144.534V145.604ZM294.931 144.043C294.931 142.863 294.454 142.272 293.499 142.272C293.091 142.272 292.737 142.441 292.436 142.779C292.141 143.117 291.962 143.539 291.897 144.043H294.931ZM311.887 149H309.352V144.3C309.352 143.104 308.912 142.506 308.032 142.506C307.614 142.506 307.273 142.685 307.01 143.045C306.747 143.404 306.616 143.852 306.616 144.389V149H304.073V144.252C304.073 143.088 303.641 142.506 302.777 142.506C302.343 142.506 301.994 142.677 301.731 143.021C301.474 143.364 301.345 143.831 301.345 144.421V149H298.802V140.759H301.345V142.047H301.377C301.64 141.607 302.008 141.25 302.48 140.977C302.957 140.698 303.477 140.558 304.041 140.558C305.205 140.558 306.002 141.071 306.431 142.095C307.059 141.071 307.981 140.558 309.199 140.558C310.991 140.558 311.887 141.663 311.887 143.874V149ZM321.302 145.604H315.927C316.013 146.8 316.766 147.399 318.188 147.399C319.095 147.399 319.891 147.184 320.578 146.755V148.59C319.816 148.997 318.827 149.201 317.609 149.201C316.278 149.201 315.245 148.834 314.51 148.099C313.775 147.358 313.408 146.328 313.408 145.009C313.408 143.64 313.805 142.557 314.599 141.757C315.393 140.958 316.369 140.558 317.528 140.558C318.73 140.558 319.658 140.915 320.313 141.629C320.972 142.342 321.302 143.311 321.302 144.534V145.604ZM318.945 144.043C318.945 142.863 318.467 142.272 317.512 142.272C317.104 142.272 316.75 142.441 316.45 142.779C316.155 143.117 315.975 143.539 315.911 144.043H318.945ZM330.774 149H328.239V144.421C328.239 143.144 327.783 142.506 326.871 142.506C326.431 142.506 326.069 142.675 325.785 143.013C325.5 143.351 325.358 143.78 325.358 144.3V149H322.815V140.759H325.358V142.063H325.39C325.997 141.06 326.879 140.558 328.038 140.558C329.862 140.558 330.774 141.69 330.774 143.954V149ZM337.775 148.903C337.4 149.102 336.834 149.201 336.077 149.201C334.286 149.201 333.39 148.27 333.39 146.409V142.635H332.054V140.759H333.39V138.981L335.924 138.257V140.759H337.775V142.635H335.924V145.966C335.924 146.825 336.265 147.254 336.946 147.254C337.215 147.254 337.491 147.176 337.775 147.02V148.903ZM350.941 149H344.02V137.46H350.675V139.577H346.619V142.144H350.394V144.252H346.619V146.892H350.941V149ZM360.501 140.759L357.781 144.751L360.485 149H357.556L356.365 146.779C356.268 146.602 356.153 146.352 356.019 146.031H355.987C355.906 146.256 355.796 146.497 355.657 146.755L354.458 149H351.536L354.321 144.896L351.705 140.759H354.651L355.826 143.069C355.981 143.375 356.091 143.632 356.156 143.842H356.188C356.274 143.589 356.389 143.327 356.534 143.053L357.733 140.759H360.501ZM364.227 148.042H364.195V152.79H361.652V140.759H364.195V141.999H364.227C364.855 141.038 365.737 140.558 366.875 140.558C367.942 140.558 368.766 140.926 369.345 141.661C369.93 142.39 370.222 143.386 370.222 144.646C370.222 146.02 369.882 147.122 369.2 147.954C368.524 148.785 367.623 149.201 366.496 149.201C365.504 149.201 364.747 148.815 364.227 148.042ZM364.155 144.662V145.322C364.155 145.891 364.305 146.355 364.605 146.715C364.906 147.074 365.3 147.254 365.788 147.254C366.368 147.254 366.816 147.031 367.132 146.586C367.454 146.135 367.615 145.499 367.615 144.679C367.615 143.23 367.052 142.506 365.925 142.506C365.405 142.506 364.978 142.704 364.646 143.101C364.318 143.493 364.155 144.013 364.155 144.662ZM379.276 145.604H373.9C373.986 146.8 374.74 147.399 376.161 147.399C377.068 147.399 377.865 147.184 378.551 146.755V148.59C377.79 148.997 376.8 149.201 375.582 149.201C374.251 149.201 373.219 148.834 372.484 148.099C371.749 147.358 371.381 146.328 371.381 145.009C371.381 143.64 371.778 142.557 372.572 141.757C373.366 140.958 374.343 140.558 375.501 140.558C376.703 140.558 377.631 140.915 378.286 141.629C378.946 142.342 379.276 143.311 379.276 144.534V145.604ZM376.918 144.043C376.918 142.863 376.44 142.272 375.485 142.272C375.078 142.272 374.724 142.441 374.423 142.779C374.128 143.117 373.948 143.539 373.884 144.043H376.918ZM386.164 143.053C385.858 142.887 385.502 142.804 385.094 142.804C384.541 142.804 384.109 143.007 383.798 143.415C383.487 143.817 383.332 144.367 383.332 145.065V149H380.789V140.759H383.332V142.288H383.364C383.766 141.173 384.49 140.615 385.537 140.615C385.805 140.615 386.014 140.647 386.164 140.711V143.053ZM392.337 148.903C391.961 149.102 391.395 149.201 390.639 149.201C388.847 149.201 387.951 148.27 387.951 146.409V142.635H386.615V140.759H387.951V138.981L390.486 138.257V140.759H392.337V142.635H390.486V145.966C390.486 146.825 390.826 147.254 391.508 147.254C391.776 147.254 392.052 147.176 392.337 147.02V148.903Z" fill="white"/>
	<path d="M138.199 41.7529H0.753662V49.2353H138.199V41.7529Z" fill="white"/>
	<path opacity="0.15" d="M138.246 48.5294H0.753662L138.246 44.3882V48.5294Z" fill="url(#paint0_linear)"/>
	<path d="M120.771 111.541H126.847V123.118H129.956V108.482H120.771V111.541Z" fill="#888B8C"/>
	<path d="M122.891 122.6L128.496 129.424L134.101 122.6H122.891Z" fill="#888B8C"/>
	<path d="M127.083 111.353V123.871H128.92V109.518L127.083 111.353Z" fill="white"/>
	<path d="M123.173 122.741L127.413 127.871L128.025 127.118V122.741H123.173Z" fill="white"/>
	<path d="M59.0667 69.1885H12.9061V84.8591H59.0667V69.1885Z" fill="white"/>
	<path opacity="0.15" d="M59.0667 84.1998H12.9061V80.9998L59.0667 73.7998V84.1998Z" fill="url(#paint1_linear)"/>
	<path d="M124.257 123.212L128.496 128.341L132.688 123.212H124.257Z" fill="#C4C3C3"/>
	<path d="M117.945 102.129H65.9437V117.8H117.945V102.129Z" fill="white"/>
	<path opacity="0.15" d="M117.945 117.188H65.9437V113.988L117.945 106.741V117.188Z" fill="url(#paint2_linear)"/>
	<path d="M62.1755 98.3647V121.377H121.525V98.3647H62.1755ZM117.662 117.471H66.5561V102.741H117.615V117.471H117.662Z" fill="#888B8C"/>
	<path d="M65.9438 117.941V102.129H118.134L121.384 98.5527H62.364V121.235L65.9438 117.941Z" fill="white"/>
	<path d="M117.333 102.741V117.188H66.5561L63.2589 120.436H120.63V99.4473L117.333 102.741Z" fill="white"/>
	<path d="M0 41V51.8235L10.551 62.3647L20.631 52.2941H118.416L128.496 62.3647L139 51.8235V41H0ZM137.446 51.2118L128.449 60.2L119.028 50.7412H19.9715L10.551 60.2L1.55439 51.2118V42.5529H137.493V51.2118H137.446Z" fill="#888B8C"/>
	<path d="M128.496 149L119.264 139.729L128.496 130.506L137.728 139.776L128.496 149Z" fill="#888B8C"/>
	<path d="M128.496 148.859L119.405 139.729L128.496 130.694V148.859Z" fill="white"/>
	<path d="M128.496 148.106L120.159 139.729L128.496 131.4L136.833 139.776L128.496 148.106Z" fill="#D2D4D4"/>
	<path d="M128.496 148.106L121.242 140.859L132.594 135.541L136.833 139.776L128.496 148.106Z" fill="#C4C3C3"/>
	<path d="M120.913 120.765L117.945 117.8V102.129L120.913 99.1646V120.765Z" fill="#C4C3C3"/>
	<path d="M65.9437 117.8L62.9763 120.765V99.1646L65.9437 102.129V117.8Z" fill="#D2D4D4"/>
	<path d="M65.9437 102.129L62.9763 99.1646H120.913L117.945 102.129H65.9437Z" fill="#D2D4D4"/>
	<path d="M62.9763 120.765L65.9437 117.8H117.945L120.913 120.765H62.9763Z" fill="#C4C3C3"/>
	<path d="M120.771 110.93H128.402L127.507 110.035V123.447H129.344V110.035V109.094H128.402H120.771V110.93Z" fill="#C4C3C3"/>
	<path d="M0.141296 41.1411V51.8235L10.5039 62.1764L10.5981 60.247L1.69568 51.3529V42.6941H137.634L138.246 41.7529L138.859 41.1411H0.141296Z" fill="white"/>
	<path d="M118.51 52.1531L128.449 62.0355V59.8707L119.028 50.459L118.51 52.1531Z" fill="white"/>
	<path d="M0.753662 41.7529V51.4941L10.5039 61.2353L20.2542 51.4941H118.699L128.449 61.2353L138.199 51.4941V41.7529H0.753662ZM3.76823 48.5294V44.7647H135.279V48.5294H3.76823Z" fill="#C4C3C3"/>
	<path d="M9.13794 65.4238V88.4356H62.6937V65.4238H9.13794ZM58.7842 84.5297H13.5185V69.8003H58.7842V84.5297Z" fill="#888B8C"/>
	<path d="M12.9061 84.9997V69.188H59.2552L62.5524 65.5645H9.27924V88.2468L12.9061 84.9997Z" fill="white"/>
	<path d="M58.4544 69.8V84.2H13.5184L10.2213 87.4941H61.7516V66.5059L58.4544 69.8Z" fill="white"/>
	<path d="M62.0814 87.7763L59.0668 84.8116V69.188L62.0814 66.1763V87.7763Z" fill="#C4C3C3"/>
	<path d="M12.9061 84.8116L9.93866 87.7763V66.1763L12.9061 69.188V84.8116Z" fill="#D2D4D4"/>
	<path d="M12.9061 69.188L9.93866 66.1763H62.0813L59.1139 69.188H12.9061Z" fill="#D2D4D4"/>
	<path d="M9.93866 87.7762L12.9061 84.8115H59.1139L62.0813 87.7762H9.93866Z" fill="#C4C3C3"/>
	<path d="M4.28632 45.3294H135.232V44.7646H3.76819V48.5294H4.28632V45.3294Z" fill="#888B8C"/>
	<path d="M134.714 47.9646H4.28632L3.76819 48.5294H135.232V44.7646L134.714 45.3294V47.9646Z" fill="white"/>
	<path d="M20.3013 51.5412L57.0414 48.5294H3.76823V44.7647H84.6906L138.246 41.7529H0.753662V51.5412L6.6886 57.4235L20.3013 51.5412Z" fill="#D2D4D4"/>
	<path d="M44.041 41.1411H33.8197L17.0511 44.7646H27.2253L44.041 41.1411Z" fill="white"/>
	<path d="M46.6787 65.5645H36.5046L19.6889 69.188H29.9102L46.6787 65.5645Z" fill="white"/>
	<path d="M95.5243 98.5527H85.303L68.5344 102.176H78.7557L95.5243 98.5527Z" fill="white"/>
	<path d="M123.079 136.059L128.873 136.388L124.916 134.271L123.079 136.059Z" fill="white"/>
	<path d="M62.0814 79.3059H68.1576V90.8824H71.2193V76.2471H62.0814V79.3059Z" fill="#888B8C"/>
	<path d="M64.1538 90.3179L69.759 97.1885L75.3642 90.3179H64.1538Z" fill="#888B8C"/>
	<path d="M68.346 79.1175V91.6352H70.183V77.2822L68.346 79.1175Z" fill="white"/>
	<path d="M64.4835 90.5059L68.6757 95.6353L69.288 94.8353V90.5059H64.4835Z" fill="white"/>
	<path d="M65.5198 90.9292L69.7591 96.1057L73.9512 90.9292H65.5198Z" fill="#C4C3C3"/>
	<path d="M62.0814 78.6942H69.6649L68.7699 77.8001V91.2118H70.6069V77.8001V76.8589H69.6649H62.0814V78.6942Z" fill="#C4C3C3"/>
	<defs>
	<linearGradient id="paint0_linear" x1="69.4944" y1="44.3748" x2="69.4944" y2="48.5393" gradientUnits="userSpaceOnUse">
	<stop stop-color="white"/>
	<stop offset="1" stop-color="#1D191D"/>
	</linearGradient>
	<linearGradient id="paint1_linear" x1="35.9937" y1="73.7922" x2="35.9937" y2="84.1991" gradientUnits="userSpaceOnUse">
	<stop stop-color="white"/>
	<stop offset="1" stop-color="#1D191D"/>
	</linearGradient>
	<linearGradient id="paint2_linear" x1="91.9535" y1="106.752" x2="91.9535" y2="117.166" gradientUnits="userSpaceOnUse">
	<stop stop-color="white"/>
	<stop offset="1" stop-color="#1D191D"/>
	</linearGradient>
	</defs>
</svg>