<?xml version="1.0" standalone="no"?>
<!DOCTYPE svg PUBLIC "-//W3C//DTD SVG 20010904//EN"
 "http://www.w3.org/TR/2001/REC-SVG-20010904/DTD/svg10.dtd">
<svg version="1.0" xmlns="http://www.w3.org/2000/svg"
 width="260.000000pt" height="260.000000pt" viewBox="0 0 260.000000 260.000000"
 preserveAspectRatio="xMidYMid meet">
<metadata>
Created by potrace 1.11, written by Peter Selinger 2001-2013
</metadata>
<g transform="translate(0.000000,260.000000) scale(0.100000,-0.100000)"
fill="#000000" stroke="none">
<path d="M300 1802 l0 -48 975 0 c880 0 975 1 976 15 0 9 2 24 4 35 9 48 59
46 -981 46 l-974 0 0 -48z"/>
<path d="M300 1481 l0 -96 488 0 487 0 0 95 0 95 -487 1 -488 0 0 -95z"/>
<path d="M1281 1385 c-5 -8 -6 -88 -2 -167 1 -17 22 -18 301 -18 l300 0 0 95
0 95 -32 0 c-347 5 -561 3 -567 -5z"/>
<path d="M1965 1090 l-110 -110 111 -111 110 -110 112 111 112 111 -109 110
c-59 60 -110 109 -112 109 -3 0 -54 -50 -114 -110z"/>
</g>
</svg>
